# xmcd CD database file
#
# Track frame offsets:
#	182
#	12860
#	26610
#	36522
#	57995
#	73175
#	85597
#	99260
#	117550
#	127712
#	146075
#	164525
#
# Disc length: 2401 seconds
#
# Revision: 4
# Processed by: cddbd v1.5.1PL0 Copyright (c) Steve Scherf et al.
# Submitted via: CDex 1.51
#
DISCID=a0095f0c
DTITLE=Fly and The Tox - Fly and The Tox
DYEAR=1991
DGENRE=Blues
TTITLE0=Bayou Lafourche
TTITLE1=Never Alone
TTITLE2=The Way I Like
TTITLE3=Captain, Captain
TTITLE4=YO!
TTITLE5=If The Sea Was Whiskey
TTITLE6=It's All Over Now
TTITLE7=A Woutini Sahraoui
TTITLE8=So Long
TTITLE9=Babe Don't Go
TTITLE10=In Love
TTITLE11=I've Got A Feeling
EXTD=YEAR: 1991
EXTT0=
EXTT1=
EXTT2=
EXTT3=
EXTT4=
EXTT5=
EXTT6=
EXTT7=
EXTT8=
EXTT9=
EXTT10=
EXTT11=
PLAYORDER=
